<svg xmlns="http://www.w3.org/2000/svg" 
className="fill-current" 
 width="800" height="800"
 viewBox="0 0 24 24">
 <path fill-rule="evenodd"
  d="m5.011 11.575 1.282-1.282a1 1 0 1 1 1.414 1.414l-3 3a1 1 0 0 1-1.414 0l-3-3a1 1 0 1 1 1.414-1.414l1.301 1.3C3.221 6.26 7.613 2 13 2c5.523 0 10 4.477 10 10s-4.477 10-10 10a9.983 9.983 0 0 1-7.777-3.714 1 1 0 0 1 1.554-1.258 8 8 0 1 0-1.766-5.454ZM13 5a1 1 0 0 1 1 1v5.586l2.707 2.707a1 1 0 0 1-1.414 1.414l-3-3A1 1 0 0 1 12 12V6a1 1 0 0 1 1-1Z"
   clip-rule="evenodd" fill="#FFF"/>
</svg>